<?xml version="1.0" encoding="utf-8"?>
<!-- Generator: Adobe Illustrator 19.0.0, SVG Export Plug-In . SVG Version: 6.00 Build 0)  -->
<svg xmlns="http://www.w3.org/2000/svg" xmlns:xlink="http://www.w3.org/1999/xlink" version="1.1" id="Layer_1" x="0px" y="0px" viewBox="0 0 1096 780" style="enable-background:new 0 0 1096 780;" xml:space="preserve">
<style type="text/css">
	.st0{fill:#FFFFFF;stroke:#000000;stroke-miterlimit:10;}
</style>
<g>
	
	<g>
		<path d="M337.8,590.6c-13.1-31.5-68.9-55.2-135.6-55.2c-66.8,0-122.5,23.7-135.6,55.2H40.7v129.2h323V590.6H337.8z"/>
		<path d="M681.2,352c-0.2,0-0.3,0-0.5,0c-1-11.5-10.2-20.5-21.5-20.5h-4.6c-0.8-11.7-10.1-20.9-21.5-20.9h-16.9    c-13.6-12.9-38.9-21.6-67.8-21.6c-28.9,0-54.2,8.7-67.8,21.6h-16.9c-11.4,0-20.7,9.2-21.5,20.9h-4.6c-11.3,0-20.5,9-21.5,20.5    c-0.2,0-0.3,0-0.5,0c-15.8,0-28.6,15.9-28.6,35.4c0,19.6,12.8,35.4,28.6,35.4c0.2,0,0.3,0,0.5,0c1,11.5,10.2,20.5,21.5,20.5h4.6    c0.8,11.7,10.1,20.9,21.5,20.9h16.9c13.6,12.9,38.9,21.6,67.8,21.6c28.9,0,54.2-8.7,67.8-21.6h16.9c11.4,0,20.7-9.2,21.5-20.9h4.6    c11.3,0,20.5-9,21.5-20.5c0.2,0,0.3,0,0.5,0c15.8,0,28.6-15.9,28.6-35.4C709.8,367.8,697,352,681.2,352z"/>
		<path d="M335,349.2c-0.2,0-0.3,0-0.5,0c-1-12.4-10.2-22.1-21.5-22.1h-4.6c-0.8-12.6-10.1-22.6-21.5-22.6H117.4    c-11.4,0-20.7,10-21.5,22.6h-4.6c-11.3,0-20.5,9.7-21.5,22.1c-0.2,0-0.3,0-0.5,0c-15.8,0-28.6,17.1-28.6,38.2    c0,21.1,12.8,38.2,28.6,38.2c0.2,0,0.3,0,0.5,0c1,12.4,10.2,22.1,21.5,22.1h4.6c0.8,12.6,10.1,22.6,21.5,22.6h169.4    c11.4,0,20.7-10,21.5-22.6h4.6c11.3,0,20.5-9.7,21.5-22.1c0.2,0,0.3,0,0.5,0c15.8,0,28.6-17.1,28.6-38.2    C363.6,366.3,350.8,349.2,335,349.2z"/>
		<path d="M840.5,64.2v2.4h-92.2V93c-9.9,14.3-15.9,33.7-15.9,55c0,21.3,6,40.7,15.9,55v26.5h92.2v2.4c0,10.4,8.4,18.9,18.8,18.9    h69.1c10.4,0,18.8-8.5,18.8-18.9v-2.4h92.2v-26.5c9.9-14.3,15.9-33.7,15.9-55c0-21.3-6-40.7-15.9-55V66.5h-92.2v-2.4    c0-10.4-8.4-18.9-18.8-18.9h-69.1C848.9,45.3,840.5,53.7,840.5,64.2z"/>
		<path d="M1033.9,583.1c-3.7-8.2-11.6-13.8-20.7-13.8h-56.1c-3.5-2.8-6.8-5.4-9.6-7.7l-34.1-27.3c-10.8-8.7-28.5-8.7-39.3,0    l-34.1,27.3c-2.8,2.3-6.1,4.9-9.6,7.7h-56.1c-9.1,0-16.9,5.6-20.6,13.8c-12.6,7.1-21.5,24.4-21.5,44.5c0,20.2,8.9,37.4,21.5,44.5    c3.7,8.2,11.6,13.8,20.6,13.8h56.1c3.5,2.8,6.8,5.4,9.6,7.7l34.1,27.3c10.8,8.7,28.5,8.7,39.3,0l34.1-27.3    c2.8-2.3,6.1-4.9,9.6-7.7h56.1c9.1,0,16.9-5.6,20.7-13.8c12.6-7.1,21.5-24.4,21.5-44.5C1055.3,607.5,1046.5,590.2,1033.9,583.1z"/>
		<path d="M488.1,54.5c-13.4-6.3-27.8-5.2-31.4,5.6c-2.2,6.8-4.2,13.6-5.9,20.4c-3-0.6-6.1-1-9.3-1c-30.2,0-54.6,30.7-54.6,68.6    s24.5,68.6,54.6,68.6c3.2,0,6.3-0.3,9.3-1c1.7,6.8,3.7,13.6,5.9,20.4c3.6,10.7,18.1,11.8,31.4,5.6c40.2-17.9,80.3-17.9,120.5,0    c13.4,6.3,27.8,5.2,31.4-5.6c2.2-6.8,4.2-13.6,5.9-20.4c3,0.6,6.1,1,9.3,1c30.2,0,54.6-30.7,54.6-68.6s-24.5-68.6-54.6-68.6    c-3.2,0-6.3,0.3-9.3,1c-1.7-6.8-3.7-13.6-5.9-20.4c-3.6-10.7-18.1-11.8-31.4-5.6C568.4,72.5,528.3,72.5,488.1,54.5z"/>
		<path d="M1022.2,324.6c-11.3,2.8-22.6,5.2-33.9,7.2c-2.7-13.9-14.8-24.3-29.3-24.3H828.7c-14.5,0-26.6,10.5-29.3,24.3    c-11.3-2-22.6-4.4-33.9-7.2c-42.8,41.9-42.8,83.7,0,125.6c11.3-2.8,22.6-5.2,33.9-7.2c2.7,13.9,14.8,24.3,29.3,24.3H959    c14.5,0,26.6-10.5,29.3-24.3c11.3,2,22.6,4.4,33.9,7.2C1065,408.3,1065,366.5,1022.2,324.6z"/>
		<path d="M709.8,626.5c0-16.1-10.2-29.9-24.6-35.3c-3.8-10.7-14.6-18.5-27.3-18.5h-19.8c-2.1-4.5-4.7-9-7.9-13.3    c-14.9-20.9-44.5-39.4-82.6-38.9c-38.1-0.5-67.7,18-82.6,38.9c-3.2,4.3-5.8,8.8-7.9,13.3h-19.8c-13,0-24,8.1-27.6,19.2    c-13.5,5.8-22.9,19.1-22.9,34.6c0,15.2,9.1,28.4,22.2,34.3c2.7,12.4,14.3,21.7,28.2,21.7h19.8c2.1,4.5,4.7,9,7.9,13.3    c14.9,20.9,44.5,39.4,82.6,38.9c38.1,0.5,67.7-18,82.6-38.9c3.2-4.3,5.8-8.8,7.9-13.3h19.8c13.7,0,25.1-9,28.1-21    C700,656,709.8,642.4,709.8,626.5z"/>
		<path d="M363.6,148.1c0-26.4-21.1-50.2-54.5-66.5v-24c0-4.3-3.7-7.8-8.4-7.8H103.5c-4.6,0-8.4,3.5-8.4,7.8v24    c-33.4,16.3-54.5,40-54.5,66.5s21.1,50.2,54.5,66.5v24.1c0,4.3,3.7,7.8,8.4,7.8h197.3c4.6,0,8.4-3.5,8.4-7.8v-24.1    C342.6,198.3,363.6,174.5,363.6,148.1z"/>
	</g>
	<g>
		<g>
			<g>
				<path d="M568.6,742.6c0.5,0,1,0.5,1,0.5l-8.9,19c-1,0-3.3,0.1-3.9,0.1c-0.5,0-1-0.5-1-0.5l-3-19c1.8,0,4.2-0.1,4.8-0.1      c0.5,0,1,0.5,1,0.5l0.9,9.3c0.1,0.8,0.1,1.9,0.1,3.1c0.3-1.3,0.6-2.5,1-3.3l3.7-9.4C565.9,742.7,568,742.6,568.6,742.6      L568.6,742.6z"/>
			</g>
			<g>
				<path d="M577.8,752c0,2.1-1.2,3.4-4,4l-3,0.6c0.2,1.3,1.1,1.9,2.4,1.9c1.7,0,2.8-1.3,2.8-1.3s0.8,0.5,0.8,1.4      c0,1.7-2.6,3.6-5.7,3.6c-3.1,0-5.2-2-5.2-5.3c0-3.8,2.7-9.1,7.6-9.1C576.1,748,577.8,749.6,577.8,752L577.8,752z M572.7,754      c0.6-0.2,0.8-0.7,0.8-1.3c0-0.6-0.2-1.4-0.9-1.4c-1.2,0-1.7,1.9-1.9,3.4L572.7,754z"/>
			</g>
			<g>
				<path d="M585.9,748c2.4,0,4.3,1.3,4.3,3c0,2.1-2.6,2.9-2.6,2.9s-0.7-2.3-2.5-2.3c-1.2,0-1.8,1.2-1.8,3.7c0,2.3,0.6,3.3,2.1,3.3      c1.5,0,2.5-1,2.5-1s0.9,0.5,0.9,1.4c0,1.7-2.5,3.4-5.5,3.4c-3.2,0-5.1-2-5.1-5.3C578.2,753.2,581,748,585.9,748L585.9,748z"/>
			</g>
			<g>
				<path d="M597.7,744.9c0.6,0,1,0.5,1,0.5l-0.5,2.9h3.1l-0.7,2.2c-0.2,0.7-0.6,1.1-1.3,1.1h-1.6l-0.9,5.7      c-0.1,0.9,0.1,1.3,0.7,1.3c0.6,0,1.1-0.3,1.1-0.3s0.9,0.5,0.9,1.4c0,1.4-2,2.8-4.5,2.8c-2.6,0-3.7-1.6-3.3-4.5l1-6.3H591      l0.7-2.3c0.2-0.6,0.7-1,1.3-1h0.8l1-2.7C596,745.3,597.2,744.9,597.7,744.9L597.7,744.9z"/>
			</g>
			<g>
				<path d="M612.6,752c0,2.1-1.2,3.4-4,4l-3,0.6c0.2,1.3,1.1,1.9,2.4,1.9c1.7,0,2.8-1.3,2.8-1.3s0.9,0.5,0.9,1.4      c0,1.7-2.6,3.6-5.7,3.6c-3.1,0-5.2-2-5.2-5.3c0-3.8,2.7-9.1,7.6-9.1C611,748,612.6,749.6,612.6,752L612.6,752z M607.5,754      c0.6-0.2,0.8-0.7,0.8-1.3c0-0.6-0.2-1.4-0.9-1.4c-1.2,0-1.7,1.9-1.9,3.4L607.5,754z"/>
			</g>
			<g>
				<path d="M624.9,752c0,2.1-1.2,3.4-4,4l-3,0.6c0.2,1.3,1.1,1.9,2.4,1.9c1.7,0,2.8-1.3,2.8-1.3s0.9,0.5,0.9,1.4      c0,1.7-2.6,3.6-5.7,3.6c-3.1,0-5.2-2-5.2-5.3c0-3.8,2.7-9.1,7.6-9.1C623.3,748,624.9,749.6,624.9,752L624.9,752z M619.8,754      c0.6-0.2,0.8-0.7,0.8-1.3c0-0.6-0.2-1.4-0.9-1.4c-1.2,0-1.7,1.9-1.9,3.4L619.8,754z"/>
			</g>
			<g>
				<path d="M635,757.1c0,0,1,1,1,2.5c0,2.1-1.8,2.7-3.3,2.7c-2,0-3.4-0.9-4.9-1.4c-0.4,0.5-0.8,1-1.2,1.4c0,0-2.2-0.1-2.2-1.6      c0-1.8,3.1-5,6.4-8.5c-0.4-0.1-0.7-0.1-1.1-0.1c-1.9,0-2.6,0.9-2.6,0.9s-1-1.1-0.9-2.5c0.1-2,2-2.5,3.5-2.5      c1.6,0,2.7,0.6,3.9,1.1l0.9-1.1c0,0,2.2,0.1,2.2,1.6c0,1.8-3,4.9-6.2,8.3c0.7,0.2,1.3,0.3,1.9,0.3      C634.3,758.2,635,757.1,635,757.1L635,757.1z"/>
			</g>
			<g>
				<path d="M649.4,761.1c-0.8,4.8-4.1,7.3-8.3,7.3c-2.7,0-4.7-1.4-4.7-3c0-1.1,0.9-1.6,0.9-1.6s0.9,0.8,2.7,0.8      c1.7,0,4-0.7,4.4-3.3l0.3-2c-1.1,1.6-2.6,3-4.5,3c-2.1,0-3.1-1.7-2.5-5.3l0.6-3.8c0.4-2.3,0.5-4.3,0.5-4.3c1.5-0.3,3.5-1,4.2-1      c0.5,0,1,0.5,1,0.5l-0.8,4.8l-0.7,4.4c-0.1,0.4,0,0.6,0.4,0.6c1.8,0,2.8-5.1,2.8-5.1c0.4-2.3,0.5-4.3,0.5-4.3      c1.5-0.3,3.5-1,4.2-1c0.5,0,1,0.5,1,0.5l-0.8,4.8L649.4,761.1z"/>
			</g>
		</g>
		<g>
			<path d="M444.6,748.8h4.8c1.1,0,1.9,0.1,2.5,0.2c0.8,0.2,1.4,0.6,1.9,1.2c0.5,0.6,0.9,1.3,1.2,2.1c0.3,0.8,0.4,1.8,0.4,3     c0,1.1-0.1,2-0.4,2.7c-0.3,0.9-0.8,1.7-1.4,2.3c-0.5,0.4-1.1,0.8-1.8,1c-0.6,0.2-1.3,0.3-2.3,0.3h-4.9V748.8z M447.2,750.9v8.5     h1.9c0.7,0,1.3,0,1.6-0.1c0.4-0.1,0.8-0.3,1.1-0.5c0.3-0.3,0.5-0.7,0.7-1.2c0.2-0.6,0.3-1.4,0.3-2.4s-0.1-1.8-0.3-2.3     c-0.2-0.5-0.4-0.9-0.7-1.2c-0.3-0.3-0.7-0.5-1.2-0.6c-0.4-0.1-1.1-0.1-2.1-0.1H447.2z"/>
			<path d="M462.7,758.7l2.5,0.4c-0.3,0.9-0.8,1.6-1.5,2.1c-0.7,0.5-1.5,0.7-2.6,0.7c-1.6,0-2.8-0.5-3.6-1.6     c-0.6-0.8-0.9-1.9-0.9-3.2c0-1.5,0.4-2.8,1.2-3.6c0.8-0.9,1.8-1.3,3.1-1.3c1.4,0,2.5,0.5,3.3,1.4c0.8,0.9,1.2,2.3,1.2,4.2h-6.2     c0,0.7,0.2,1.3,0.6,1.7c0.4,0.4,0.9,0.6,1.4,0.6c0.4,0,0.7-0.1,1-0.3C462.3,759.5,462.5,759.1,462.7,758.7z M462.8,756.2     c0-0.7-0.2-1.3-0.6-1.6c-0.4-0.4-0.8-0.6-1.3-0.6c-0.5,0-1,0.2-1.3,0.6c-0.4,0.4-0.5,0.9-0.5,1.6H462.8z"/>
			<path d="M466,759l2.5-0.4c0.1,0.5,0.3,0.8,0.6,1.1c0.3,0.2,0.8,0.4,1.4,0.4c0.6,0,1.1-0.1,1.4-0.4c0.2-0.2,0.3-0.4,0.3-0.7     c0-0.2-0.1-0.3-0.2-0.5c-0.1-0.1-0.4-0.2-0.8-0.3c-2-0.4-3.3-0.8-3.8-1.2c-0.7-0.5-1.1-1.2-1.1-2.1c0-0.8,0.3-1.5,1-2     s1.6-0.8,3-0.8c1.3,0,2.2,0.2,2.8,0.6c0.6,0.4,1,1,1.3,1.8l-2.3,0.4c-0.1-0.4-0.3-0.6-0.6-0.8c-0.3-0.2-0.7-0.3-1.2-0.3     c-0.7,0-1.1,0.1-1.4,0.3c-0.2,0.1-0.3,0.3-0.3,0.5c0,0.2,0.1,0.3,0.2,0.4c0.2,0.2,1,0.4,2.3,0.7c1.3,0.3,2.2,0.7,2.8,1.1     c0.5,0.4,0.8,1.1,0.8,1.8c0,0.9-0.4,1.6-1.1,2.2c-0.7,0.6-1.8,0.9-3.2,0.9c-1.3,0-2.3-0.3-3-0.8C466.7,760.6,466.3,759.9,466,759     z"/>
			<path d="M476.6,751v-2.3h2.5v2.3H476.6z M476.6,761.6v-9.3h2.5v9.3H476.6z"/>
			<path d="M481,762.3l2.8,0.3c0,0.3,0.2,0.6,0.3,0.7c0.2,0.2,0.6,0.3,1.1,0.3c0.6,0,1.1-0.1,1.5-0.3c0.2-0.1,0.4-0.3,0.5-0.6     c0.1-0.2,0.1-0.6,0.1-1.1v-1.4c-0.7,1-1.7,1.5-2.8,1.5c-1.3,0-2.2-0.5-3-1.6c-0.6-0.8-0.9-1.9-0.9-3.1c0-1.6,0.4-2.8,1.1-3.6     c0.8-0.8,1.7-1.2,2.8-1.2c1.2,0,2.1,0.5,2.9,1.5v-1.3h2.3v8.4c0,1.1-0.1,1.9-0.3,2.5c-0.2,0.5-0.4,1-0.8,1.3     c-0.3,0.3-0.8,0.6-1.3,0.7c-0.5,0.2-1.2,0.3-2.1,0.3c-1.6,0-2.7-0.3-3.4-0.8c-0.7-0.5-1-1.2-1-2.1C481,762.5,481,762.4,481,762.3     z M483.2,756.8c0,1,0.2,1.7,0.6,2.2c0.4,0.5,0.9,0.7,1.4,0.7c0.6,0,1.1-0.2,1.5-0.7c0.4-0.5,0.6-1.2,0.6-2.1c0-1-0.2-1.7-0.6-2.2     c-0.4-0.5-0.9-0.7-1.5-0.7c-0.6,0-1.1,0.2-1.5,0.7C483.4,755.1,483.2,755.8,483.2,756.8z"/>
			<path d="M500.3,761.6h-2.5v-4.8c0-1-0.1-1.7-0.2-2c-0.1-0.3-0.3-0.5-0.5-0.7s-0.5-0.2-0.9-0.2c-0.4,0-0.8,0.1-1.2,0.4     c-0.3,0.2-0.6,0.5-0.7,0.9s-0.2,1.1-0.2,2.1v4.2h-2.5v-9.3h2.3v1.4c0.8-1.1,1.8-1.6,3.1-1.6c0.5,0,1,0.1,1.5,0.3     c0.5,0.2,0.8,0.4,1,0.8s0.4,0.7,0.5,1c0.1,0.4,0.1,0.9,0.1,1.7V761.6z"/>
			<path d="M507.9,758.7l2.5,0.4c-0.3,0.9-0.8,1.6-1.5,2.1c-0.7,0.5-1.5,0.7-2.6,0.7c-1.6,0-2.8-0.5-3.6-1.6     c-0.6-0.8-0.9-1.9-0.9-3.2c0-1.5,0.4-2.8,1.2-3.6c0.8-0.9,1.8-1.3,3.1-1.3c1.4,0,2.5,0.5,3.3,1.4c0.8,0.9,1.2,2.3,1.2,4.2h-6.2     c0,0.7,0.2,1.3,0.6,1.7c0.4,0.4,0.9,0.6,1.4,0.6c0.4,0,0.7-0.1,1-0.3C507.5,759.5,507.7,759.1,507.9,758.7z M508,756.2     c0-0.7-0.2-1.3-0.6-1.6c-0.4-0.4-0.8-0.6-1.3-0.6c-0.5,0-1,0.2-1.3,0.6c-0.4,0.4-0.5,0.9-0.5,1.6H508z"/>
			<path d="M520.7,761.6h-2.3v-1.4c-0.4,0.5-0.8,0.9-1.3,1.2c-0.5,0.3-1,0.4-1.6,0.4c-1.1,0-2-0.4-2.8-1.3c-0.8-0.9-1.1-2.1-1.1-3.6     c0-1.6,0.4-2.8,1.1-3.6c0.7-0.8,1.7-1.2,2.8-1.2c1,0,1.9,0.4,2.7,1.3v-4.6h2.5V761.6z M514.1,756.8c0,1,0.1,1.7,0.4,2.2     c0.4,0.6,1,1,1.7,1c0.6,0,1.1-0.2,1.5-0.7c0.4-0.5,0.6-1.2,0.6-2.2c0-1.1-0.2-1.8-0.6-2.3c-0.4-0.5-0.9-0.7-1.5-0.7     c-0.6,0-1.1,0.2-1.5,0.7C514.3,755.1,514.1,755.8,514.1,756.8z"/>
			<path d="M527.3,761.6v-12.9h2.5v4.6c0.8-0.9,1.7-1.3,2.7-1.3c1.1,0,2.1,0.4,2.8,1.2c0.7,0.8,1.1,2,1.1,3.5c0,1.6-0.4,2.8-1.1,3.7     c-0.8,0.9-1.7,1.3-2.8,1.3c-0.5,0-1.1-0.1-1.6-0.4s-1-0.7-1.3-1.2v1.4H527.3z M529.7,756.8c0,1,0.2,1.7,0.5,2.1     c0.4,0.7,1,1,1.7,1c0.5,0,1-0.2,1.4-0.7c0.4-0.5,0.6-1.2,0.6-2.2c0-1.1-0.2-1.8-0.6-2.3c-0.4-0.5-0.9-0.7-1.5-0.7     c-0.6,0-1.1,0.2-1.5,0.7C529.9,755.1,529.7,755.8,529.7,756.8z"/>
			<path d="M536.9,752.3h2.6l2.2,6.6l2.2-6.6h2.6l-3.3,9l-0.6,1.6c-0.2,0.5-0.4,1-0.6,1.2c-0.2,0.3-0.4,0.5-0.7,0.7     c-0.3,0.2-0.6,0.3-0.9,0.4c-0.4,0.1-0.8,0.1-1.3,0.1c-0.5,0-0.9,0-1.4-0.1l-0.2-1.9c0.4,0.1,0.7,0.1,1,0.1c0.6,0,1-0.2,1.3-0.5     c0.3-0.3,0.5-0.8,0.6-1.3L536.9,752.3z"/>
		</g>
	</g>
</g>
</svg>
